<?xml version="1.0" encoding="UTF-8" standalone="no"?>
<!-- Created with Inkscape (http://www.inkscape.org/) -->

<svg
   xmlns:dc="http://purl.org/dc/elements/1.1/"
   xmlns:cc="http://creativecommons.org/ns#"
   xmlns:rdf="http://www.w3.org/1999/02/22-rdf-syntax-ns#"
   xmlns:svg="http://www.w3.org/2000/svg"
   xmlns="http://www.w3.org/2000/svg"
   xmlns:sodipodi="http://sodipodi.sourceforge.net/DTD/sodipodi-0.dtd"
   xmlns:inkscape="http://www.inkscape.org/namespaces/inkscape"
   width="208.33"
   height="84.809998"
   id="svg4279"
   version="1.1"
   inkscape:version="0.48.4 r9939"
   sodipodi:docname="cooney-logo-2.svg">
  <defs
     id="defs4281">
    <clipPath
       clipPathUnits="userSpaceOnUse"
       id="clipPath1018">
      <path
         inkscape:connector-curvature="0"
         d="m 432,28 159,0 0,71 -159,0 0,-71 z"
         id="path1020" />
    </clipPath>
    <clipPath
       clipPathUnits="userSpaceOnUse"
       id="clipPath1006">
      <path
         inkscape:connector-curvature="0"
         d="m 432,28 158.665,0 0,70.76989 -158.665,0 L 432,28 z"
         id="path1008" />
    </clipPath>
    <clipPath
       clipPathUnits="userSpaceOnUse"
       id="clipPath996">
      <path
         inkscape:connector-curvature="0"
         d="m 432,28 159,0 0,71 -159,0 0,-71 z"
         id="path998" />
    </clipPath>
  </defs>
  <sodipodi:namedview
     id="base"
     pagecolor="#ffffff"
     bordercolor="#666666"
     borderopacity="1.0"
     inkscape:pageopacity="0.0"
     inkscape:pageshadow="2"
     inkscape:zoom="3.959798"
     inkscape:cx="140.45504"
     inkscape:cy="35.417822"
     inkscape:document-units="px"
     inkscape:current-layer="layer1"
     showgrid="false"
     fit-margin-top="5"
     fit-margin-right="5"
     fit-margin-bottom="5"
     fit-margin-left="5"
     inkscape:window-width="1855"
     inkscape:window-height="1056"
     inkscape:window-x="65"
     inkscape:window-y="24"
     inkscape:window-maximized="1" />
  <metadata
     id="metadata4284">
    <rdf:RDF>
      <cc:Work
         rdf:about="">
        <dc:format>image/svg+xml</dc:format>
        <dc:type
           rdf:resource="http://purl.org/dc/dcmitype/StillImage" />
        <dc:title></dc:title>
      </cc:Work>
    </rdf:RDF>
  </metadata>
  <g
     inkscape:label="Layer 1"
     inkscape:groupmode="layer"
     id="layer1"
     transform="translate(-95.834672,-223.13487)">
    <rect
       style="color:#000000;fill:#ffffff;fill-opacity:1;fill-rule:nonzero;stroke:none;stroke-width:5;marker:none;visibility:visible;display:inline;overflow:visible;enable-background:accumulate"
       id="rect4501"
       width="208.33"
       height="84.809998"
       x="95.834671"
       y="223.131" />
    <g
       transform="matrix(1.25,0,0,-1.25,-439.16593,351.59336)"
       id="g992">
      <g
         id="g994"
         clip-path="url(#clipPath996)">
        <path
           inkscape:connector-curvature="0"
           d="m 590.665,44.5785 c 0,-3.11259 -2.5352,-5.65971 -5.6338,-5.65971 l -109.3775,0 c -3.0986,0 -5.6331,2.54712 -5.6331,5.65971 l 0,38.22716 c 0,3.1126 2.5345,5.65972 5.6331,5.65972 l 109.3775,0 c 3.0986,0 5.6338,-2.54712 5.6338,-5.65972 l 0,-38.22716"
           style="fill:#745f47;fill-opacity:1;fill-rule:nonzero;stroke:none"
           id="path1000" />
      </g>
    </g>
    <g
       transform="matrix(1.25,0,0,-1.25,-439.16593,351.59336)"
       id="g1002">
      <g
         id="g1004"
         clip-path="url(#clipPath1006)">
        <path
           inkscape:connector-curvature="0"
           d="m 445.5283,67.85953 15.7599,0 0,-7.67751 -15.7599,0 0,7.67751 z"
           style="fill:#ffffff;fill-opacity:1;fill-rule:nonzero;stroke:none"
           id="path1010" />
        <path
           inkscape:connector-curvature="0"
           d="m 456.1238,62.82994 c -1.5168,-0.2523 -1.6121,2.01526 -0.3912,2.42858 1.3661,0.46467 1.8336,-2.18579 0.3912,-2.42858 z m 1.7711,0.70937 c -0.6303,1.50177 1.3345,2.78865 1.9736,0.79938 0.4297,-1.32808 -1.4335,-2.07992 -1.9736,-0.79938 z M 449.543,41.58826 c 0.0505,-1.14234 1.0468,-1.35788 1.7477,-1.02126 0.5256,0.25484 0.8884,0.82094 0.5685,1.53918 -0.552,1.24377 -2.3768,0.87038 -2.3162,-0.51792 z m 35.8797,57.0054 c -0.446,-0.19779 -0.7041,-0.47925 -0.8246,-0.79115 l -0.4978,-0.04754 -0.3837,-0.03994 -1.9509,-0.11791 -0.6984,-0.03042 -3.2892,-0.07608 c -1.7515,-0.01965 -3.5642,-0.0393 -5.3877,-0.24026 -3.8336,-0.42536 -9.8113,-0.63709 -9.8712,-0.63837 l -0.1565,-0.0063 -5.8092,-8.27023 0.1615,-3.69708 c 0.0322,-1.54362 0.3881,-3.05617 0.7326,-4.51864 0.3003,-1.278 0.6114,-2.59974 0.6884,-3.89866 l -0.008,-1.32935 c -0.0523,-2.12937 -0.0195,-3.4137 0.2638,-4.04066 -1.703,-0.11411 -3.4065,-0.17369 -5.1139,-0.20539 -0.3129,2.38927 -0.1211,5.08601 0.06,7.52916 l 0.1495,2.19911 -0.1363,0.09889 c -0.8915,0.67513 -1.4777,1.56517 -2.0985,2.50719 l -1.0828,1.52523 c -1.995,2.43872 -5.5202,5.98429 -8.5336,8.38434 0.4076,1.33949 -0.8739,2.47105 -2.2777,1.84726 -2.4052,-1.06499 0.5628,-4.50532 1.9913,-2.42667 2.9503,-2.36582 6.3814,-5.82264 8.3323,-8.20748 l 1.0436,-1.47325 c 0.5887,-0.89447 1.2184,-1.80416 2.1105,-2.52874 -0.0157,-0.23646 -0.1287,-1.87706 -0.1287,-1.87706 -0.1116,-1.5303 -0.2322,-3.15823 -0.2322,-4.75763 0,-0.96547 0.0518,-1.91574 0.1679,-2.83303 -3.2507,-0.04882 -6.5039,-0.03043 -9.7514,-0.19526 -1.13,-0.05832 -2.4367,0.10144 -3.5195,-0.28526 -1.4177,-0.50778 -1.0738,-1.09923 -0.9678,-2.8083 0.1874,-3.02067 0.7842,-5.9957 1.2139,-8.98404 0.0776,-0.53694 0.1338,-1.06944 0.1811,-1.60067 -0.4467,-0.01522 -0.8934,-0.03867 -1.342,-0.08495 -1.4739,-0.15024 -3.2179,0 -3.4343,0.1756 0,0 0.006,-0.0025 0.0126,-0.01458 l -0.0183,-0.01268 c -0.0782,0.25167 -0.2278,0.49003 -0.4751,0.68591 -1.5307,1.22158 -3.6362,-1.75851 -1.7402,-2.68024 1.1459,-0.55533 2.2254,0.46973 2.274,1.50558 0.8537,-0.24597 2.6588,-0.2073 3.4286,-0.12996 0.4473,0.04501 0.8865,0.06783 1.3275,0.08368 0.089,-1.19876 0.1218,-2.38992 0.1306,-3.57473 -0.3508,0.0634 -0.7016,0.11157 -1.0322,0.12869 -0.3799,0.01902 -0.8057,0.03106 -1.2537,0.04374 -0.8745,0.02472 -1.8355,0.05135 -2.5699,0.1363 -0.1363,0.18194 -0.3451,0.35626 -0.6455,0.51094 -1.2644,0.64978 -3.1061,-0.30174 -2.2354,-1.80416 0.9022,-1.55883 3.18,-0.39494 3.0708,0.79812 0.7168,-0.06847 1.5755,-0.09192 2.3661,-0.11474 0.4473,-0.01268 0.8695,-0.02346 1.243,-0.04375 0.3344,-0.01521 0.6953,-0.06973 1.0612,-0.13692 0.008,-1.79656 -0.0132,-3.58487 0.0909,-5.38205 0.1073,0.0038 0.2151,0.01014 0.3243,0.01711 0.8196,0.04818 1.6373,0.12298 2.4544,0.20666 -0.003,-0.03296 -0.004,-0.06846 -0.008,-0.10143 -0.0681,-0.7081 -0.1255,-1.3173 -0.1053,-1.70907 0,-0.0019 0.029,-0.58385 0.029,-0.58385 0.0284,-0.64534 0.0618,-1.30462 0.1426,-1.93475 -1.1995,-0.32457 -1.8399,-1.76042 -0.4486,-2.44316 1.5458,-0.76198 3.2424,2.56171 0.9155,2.50972 -0.0789,0.60984 -0.1111,1.25518 -0.1388,1.88974 l -0.029,0.58702 c -0.0183,0.35627 0.0384,0.9528 0.1034,1.64124 0.005,0.0634 0.0127,0.12806 0.0177,0.19145 1.0651,0.11411 2.1288,0.24026 3.1996,0.35437 0.009,-0.30302 0.0183,-0.60857 0.0246,-0.91413 0.0353,-1.29194 0.0681,-2.5186 0.1924,-3.48851 -1.2524,-0.21173 -1.6247,-2.39435 0.0189,-2.93509 0.6556,-0.2149 1.1648,0.07734 1.4449,0.54835 0.4013,0.67704 0.335,1.71668 -0.4398,2.16106 -0.1911,0.10967 -0.3729,0.16926 -0.5439,0.20476 -0.1318,0.9528 -0.1665,2.20417 -0.2,3.52148 -0.0107,0.31696 -0.017,0.6352 -0.0283,0.95216 1.0417,0.10713 2.0884,0.19652 3.1453,0.2466 0.0303,-0.15405 0.0599,-0.30746 0.0896,-0.46087 0.3041,-1.53284 0.5931,-2.97883 0.4006,-4.37474 l 0.4669,-0.0653 c 0.2019,1.47643 -0.1066,3.03018 -0.4044,4.53133 -0.0265,0.12868 -0.0492,0.2561 -0.0745,0.38416 0.865,0.02853 1.7345,0.03549 2.6141,-0.01015 0.1974,-0.01077 0.4095,-0.01204 0.6139,-0.01901 -0.0209,-0.51285 -0.0429,-1.03965 -0.0158,-1.57278 0.0574,-1.13981 0.1085,-1.71605 0.1596,-2.27644 0.0341,-0.35944 0.0644,-0.70937 0.0959,-1.18671 -0.0113,-0.0063 -0.0208,-0.0082 -0.0315,-0.01268 -1.426,-0.7417 -1.2468,-2.43302 0.4492,-2.43556 1.9585,-0.0032 1.6683,2.90974 0.0429,2.60418 -0.0277,0.4184 -0.0568,0.74424 -0.0858,1.07578 -0.0505,0.55405 -0.1028,1.12586 -0.1596,2.25488 -0.0246,0.51412 -0.005,1.03077 0.0164,1.53348 1.1483,-0.02473 2.3705,0.0032 3.6097,0.08495 0.0599,-0.33979 0.1085,-0.67387 0.123,-0.98703 0.0196,-0.37529 0.0284,-0.80002 0.0423,-1.24821 0.0214,-0.79558 0.046,-1.65835 0.1148,-2.3785 -1.1862,0.11031 -2.3459,-2.17881 -0.7924,-3.0847 1.4915,-0.87482 2.4398,0.97562 1.7937,2.24728 -0.1533,0.30175 -0.3268,0.51222 -0.5091,0.64788 -0.0852,0.73725 -0.1111,1.70273 -0.1351,2.58136 -0.0132,0.44945 -0.0246,0.87545 -0.0435,1.25961 -0.0145,0.3195 -0.0631,0.65675 -0.1212,0.99907 1.2064,0.09255 2.4147,0.23392 3.5662,0.43424 -0.0101,-0.61871 -0.0353,-1.23426 -0.0984,-1.86058 -0.0783,-0.77529 -0.1155,-2.58896 0.1293,-3.44603 -1.0303,-0.04755 -2.05,-1.13284 -1.4998,-2.28341 0.92,-1.90623 3.8854,0.20919 2.669,1.74837 -0.1962,0.2466 -0.4322,0.39811 -0.6833,0.47735 l 0.0151,0.01775 c 0.0101,-0.0076 0.0126,-0.01268 0.0126,-0.01268 -0.1735,0.21617 -0.3243,1.96962 -0.1735,3.45047 0.0662,0.67007 0.0902,1.33823 0.1003,2.00195 0.8241,0.15848 1.6203,0.34042 2.3497,0.55976 0.1975,0.07037 0.1016,1.75408 -0.0858,3.77124 0.0574,0.0044 0.1167,0.01205 0.1722,0.01458 0.3754,0.01902 0.7963,0.0298 1.243,0.04374 0.7925,0.02029 1.6506,0.04564 2.3673,0.11411 -0.1104,-1.19115 2.168,-2.35758 3.0703,-0.79749 0.8694,1.50115 -0.9711,2.45394 -2.2374,1.80226 -0.2997,-0.15404 -0.5086,-0.3271 -0.6455,-0.51094 -0.7319,-0.08558 -1.6934,-0.11157 -2.5692,-0.13566 -0.4467,-0.01205 -0.8726,-0.02409 -1.2512,-0.04374 -0.0625,-0.0025 -0.1312,-0.0089 -0.1943,-0.01648 -0.1117,1.15058 -0.2474,2.37342 -0.3704,3.44984 0.3275,-0.01649 0.6556,-0.03677 0.9893,-0.07037 0.7705,-0.07734 2.575,-0.11664 3.4293,0.12932 0.0473,-1.03584 1.1287,-2.059 2.2727,-1.50685 1.8979,0.92363 -0.2089,3.90373 -1.7402,2.68216 -0.2461,-0.19716 -0.3969,-0.43488 -0.4751,-0.68592 l -0.0196,0.01458 c 0.007,0.0089 0.0152,0.01459 0.0152,0.01459 -0.2177,-0.17814 -1.961,-0.32648 -3.4362,-0.17814 -0.3634,0.0374 -0.7281,0.05959 -1.0909,0.07607 -0.1546,1.33823 -0.2808,2.37089 -0.3022,2.60481 -0.1281,1.5189 -0.2915,3.03715 -0.4499,4.55352 -0.2303,2.23967 -0.6644,4.82356 -0.6657,7.02139 -1.2732,-0.18384 -2.5465,-0.30429 -3.8235,-0.40064 l 0.041,0.11918 0.012,-0.0063 c -0.2404,0.18383 -0.2922,1.38323 -0.2922,2.47612 0,0.5325 0.012,1.04028 0.0208,1.39274 l 0.007,1.3845 c -0.0808,1.3509 -0.3981,2.69927 -0.7048,4.0039 -0.3369,1.43204 -0.6852,2.90973 -0.7155,4.38678 0,0 -0.13,2.94206 -0.1533,3.49358 0.1199,0.17116 5.3322,7.59129 5.5044,7.83662 0.7824,0.0298 6.1695,0.23836 9.7621,0.63647 1.7919,0.19905 3.5883,0.21871 5.3246,0.23582 l 3.3151,0.07861 0.6921,0.02979 1.9869,0.12045 0.3874,0.03993 0.3678,0.03551 c 0.1773,-1.25518 1.9585,-2.48183 2.934,-0.9249 0.9666,1.54045 -0.4644,3.06187 -2.045,2.35948"
           style="fill:#745f47;fill-opacity:1;fill-rule:nonzero;stroke:none"
           id="path1012" />
      </g>
    </g>
    <g
       transform="matrix(1.25,0,0,-1.25,-439.16593,351.59336)"
       id="g1014">
      <g
         id="g1016"
         clip-path="url(#clipPath1018)">
        <path
           inkscape:connector-curvature="0"
           d="m 479.1801,79.2937 0,-4.91168 c 0,-0.62885 0.2032,-0.90081 0.8127,-0.90081 0.3716,0 0.8625,0.22124 1.1836,0.37402 l 0,-0.98576 c -0.3552,-0.20413 -0.947,-0.54391 -1.5389,-0.54391 -1.0997,0 -1.7086,0.61173 -1.7086,1.5639 l 0,5.40424 -1.2184,0 c -0.2876,0 -0.5072,0.18701 -0.5072,0.47608 l 0,0.18701 c 0,0.28907 0.2196,0.47608 0.5072,0.47608 l 1.2184,0 0,2.92305 c 0,0.28907 0.2366,0.50967 0.5073,0.50967 l 0.2366,0 c 0.2877,0 0.5073,-0.2206 0.5073,-0.50967 l 0,-2.92305 2.0474,0 0,-1.13917 -2.0474,0"
           style="fill:#dbea3e;fill-opacity:1;fill-rule:nonzero;stroke:none"
           id="path1022" />
        <path
           inkscape:connector-curvature="0"
           d="m 488.4122,72.37691 0,1.13853 1.2007,0 0,4.75826 c 0,0.56103 -0.4568,1.02 -1.0146,1.02 l -2.0133,0 c -0.5584,0 -1.0146,-0.45897 -1.0146,-1.02 l 0,-4.75826 1.2007,0 0,-1.13853 -3.8734,0 0,1.13853 1.4209,0 0,9.21162 -1.4209,0 0,1.13853 2.1648,0 c 0.2707,0 0.5079,-0.2206 0.5079,-0.50967 l 0,-3.34842 c 0,-0.16989 0.1009,-0.30555 0.2366,-0.30555 0.5243,0 1.3363,0.78163 2.6222,0.78163 l 0.2531,0 c 1.3199,0 2.1824,-0.76451 2.1824,-2.00574 l 0,-4.9624 1.4209,0 0,-1.13853 -3.8734,0"
           style="fill:#dbea3e;fill-opacity:1;fill-rule:nonzero;stroke:none"
           id="path1024" />
        <path
           inkscape:connector-curvature="0"
           d="m 499.3567,78.3764 c 0,0.5268 -0.4227,0.9173 -0.913,0.9173 l -2.2165,0 c -0.4903,0 -0.913,-0.3905 -0.913,-0.9173 l 0,-1.4276 4.0425,0 0,1.4276 z m 0.2707,-2.48182 -4.3132,0 0,-1.34266 c 0,-0.62886 0.3552,-1.03648 1.0991,-1.03648 l 2.3345,0 c 0.2878,0 0.5073,-0.18701 0.5073,-0.47608 l 0,-0.187 c 0,-0.28845 -0.2195,-0.47545 -0.5073,-0.47545 l -2.8418,0 c -0.9811,0 -1.8436,0.88369 -1.8436,1.93728 l 0,4.24859 c 0,1.03711 0.8966,1.87009 1.9452,1.87009 l 2.6557,0 c 1.0486,0 1.9452,-0.83298 1.9452,-1.87009 l 0,-1.64821 c 0,-0.73092 -0.4568,-1.01999 -0.9811,-1.01999"
           style="fill:#dbea3e;fill-opacity:1;fill-rule:nonzero;stroke:none"
           id="path1026" />
        <path
           inkscape:connector-curvature="0"
           d="m 510.4179,82.72706 0,-8.31081 c 0,-1.29194 -0.829,-2.09069 -2.537,-2.09069 -1.7768,0 -2.6052,0.76515 -2.6052,2.09069 l 0,0.84947 1.2518,0 0,-0.64534 c 0,-0.61238 0.3382,-1.10494 0.9641,-1.10494 l 0.7104,0 c 0.6259,0 0.9641,0.49256 0.9641,1.10494 l 0,8.10668 -1.4209,0 0,1.13853 4.0936,0 0,-1.13853 -1.4209,0"
           style="fill:#dbea3e;fill-opacity:1;fill-rule:nonzero;stroke:none"
           id="path1028" />
        <path
           inkscape:connector-curvature="0"
           d="m 518.4638,78.35928 c 0,0.50969 -0.4227,0.93442 -0.93,0.93442 l -2.1484,0 c -0.5249,0 -0.93,-0.42473 -0.93,-0.93442 l 0,-3.90879 c 0,-0.52743 0.4051,-0.93505 0.913,-0.93505 l 2.1654,0 c 0.5073,0 0.93,0.40762 0.93,0.93505 l 0,3.90879 z m -0.6258,-5.98237 -2.7573,0 c -1.0487,0 -1.8778,0.86657 -1.8778,1.90368 l 0,4.28219 c 0,1.03711 0.8966,1.87009 1.9453,1.87009 l 2.6222,0 c 1.0486,0 1.9452,-0.83298 1.9452,-1.87009 l 0,-4.28219 c 0,-1.03711 -0.8461,-1.90368 -1.8776,-1.90368"
           style="fill:#dbea3e;fill-opacity:1;fill-rule:nonzero;stroke:none"
           id="path1030" />
        <path
           inkscape:connector-curvature="0"
           d="m 526.9955,75.43561 c 0,0.47608 -0.3898,0.86722 -0.8801,0.86722 l -2.2834,0 c -0.4903,0 -0.8802,-0.39114 -0.8802,-0.86722 l 0,-1.05359 c 0,-0.47545 0.3899,-0.86658 0.8802,-0.86658 l 2.2834,0 c 0.4903,0 0.8801,0.39113 0.8801,0.86658 l 0,1.05359 z m 0.6083,-3.0587 c -0.152,0 -0.3041,0.11854 -0.3716,0.23772 l -0.1692,0.28907 c -0.1021,0.16989 -0.1696,0.16989 -0.3046,0.16989 -0.5578,0 -1.3371,-0.74803 -2.6223,-0.74803 l -0.2537,0 c -1.4549,0 -2.1818,0.90081 -2.1818,2.00575 l 0,1.15565 c 0,1.10494 0.7269,2.00575 2.1818,2.00575 l 0.2537,0 c 1.2852,0 2.0645,-0.78227 2.6223,-0.78227 0.135,0 0.2371,0.13566 0.2371,0.30619 l 0,1.18925 c 0,0.66309 -0.3722,1.08782 -1.1003,1.08782 l -2.9939,0 c -0.2877,0 -0.5243,0.18701 -0.5243,0.47608 l 0,0.18701 c 0,0.28907 0.2366,0.47608 0.5073,0.47608 l 3.4513,0 c 1.0486,0 1.9112,-0.90081 1.9112,-1.87009 l 0,-5.04734 1.3363,0 0,-1.13853 -1.9793,0"
           style="fill:#dbea3e;fill-opacity:1;fill-rule:nonzero;stroke:none"
           id="path1032" />
        <path
           inkscape:connector-curvature="0"
           d="m 536.7122,72.37691 0,1.13853 1.2001,0 0,4.75826 c 0,0.56103 -0.4555,1.02 -1.0139,1.02 l -2.0134,0 c -0.5584,0 -1.0146,-0.45897 -1.0146,-1.02 l 0,-4.75826 1.2001,0 0,-1.13853 -3.8728,0 0,1.13853 1.4209,0 0,5.77826 -1.4209,0 0,1.13917 2.0468,0 c 0.2366,0 0.3376,-0.13629 0.3887,-0.23835 l 0.1697,-0.30556 c 0.0839,-0.15341 0.1514,-0.18701 0.2871,-0.18701 0.5584,0 1.3527,0.78163 2.6386,0.78163 l 0.2537,0 c 1.3199,0 2.1824,-0.76451 2.1824,-2.00574 l 0,-4.9624 1.4209,0 0,-1.13853 -3.8734,0"
           style="fill:#dbea3e;fill-opacity:1;fill-rule:nonzero;stroke:none"
           id="path1034" />
        <path
           inkscape:connector-curvature="0"
           d="m 553.558,77.54343 0,-3.27995 c 0,-1.03711 -0.8624,-1.88657 -1.8947,-1.88657 l -3.2135,0 c -1.1003,0 -1.9124,0.90081 -1.9124,1.88657 l 0,7.71554 c 0,1.07071 0.8468,1.88657 1.9124,1.88657 l 4.2621,0 c 0.2877,0 0.5244,-0.2206 0.5244,-0.50967 l 0,-2.10782 -1.2519,0 0,1.47896 -3.2469,0 c -0.4909,0 -0.9476,-0.39114 -0.9476,-0.93504 l 0,-7.34153 c 0,-0.47609 0.3552,-0.93505 0.93,-0.93505 l 2.6733,0 c 0.5578,0 0.913,0.45896 0.913,0.93505 l 0,3.09294 -1.0827,0 c -0.2877,0 -0.5243,0.187 -0.5243,0.47608 l 0,0.18637 c 0,0.28907 0.2366,0.47608 0.5079,0.47608 l 3.3826,0 0,-1.13853 -1.0317,0"
           style="fill:#dbea3e;fill-opacity:1;fill-rule:nonzero;stroke:none"
           id="path1036" />
        <path
           inkscape:connector-curvature="0"
           d="m 561.361,75.43561 c 0,0.47608 -0.3886,0.86722 -0.8789,0.86722 l -2.2834,0 c -0.4915,0 -0.8795,-0.39114 -0.8795,-0.86722 l 0,-1.05359 c 0,-0.47545 0.388,-0.86658 0.8795,-0.86658 l 2.2834,0 c 0.4903,0 0.8789,0.39113 0.8789,0.86658 l 0,1.05359 z m 0.6095,-3.0587 c -0.152,0 -0.3047,0.11854 -0.3722,0.23772 l -0.1691,0.28907 c -0.101,0.16989 -0.1691,0.16989 -0.3048,0.16989 -0.5577,0 -1.3357,-0.74803 -2.6216,-0.74803 l -0.2537,0 c -1.4549,0 -2.1818,0.90081 -2.1818,2.00575 l 0,1.15565 c 0,1.10494 0.7269,2.00575 2.1818,2.00575 l 0.2537,0 c 1.2859,0 2.0639,-0.78227 2.6216,-0.78227 0.1357,0 0.2366,0.13566 0.2366,0.30619 l 0,1.18925 c 0,0.66309 -0.3716,1.08782 -1.0991,1.08782 l -2.9938,0 c -0.2878,0 -0.5244,0.18701 -0.5244,0.47608 l 0,0.18701 c 0,0.28907 0.2366,0.47608 0.5079,0.47608 l 3.4501,0 c 1.0493,0 1.9118,-0.90081 1.9118,-1.87009 l 0,-5.04734 1.3363,0 0,-1.13853 -1.9793,0"
           style="fill:#dbea3e;fill-opacity:1;fill-rule:nonzero;stroke:none"
           id="path1038" />
        <path
           inkscape:connector-curvature="0"
           d="m 571.0783,72.37691 0,1.13853 1.2014,0 0,4.75826 c 0,0.56103 -0.4575,1.02 -1.0152,1.02 l -2.0128,0 c -0.5584,0 -1.0152,-0.45897 -1.0152,-1.02 l 0,-4.75826 1.2014,0 0,-1.13853 -3.8734,0 0,1.13853 1.4202,0 0,5.77826 -1.4202,0 0,1.13917 2.0461,0 c 0.2372,0 0.3388,-0.13629 0.3893,-0.23835 l 0.1685,-0.30556 c 0.0851,-0.15341 0.1533,-0.18701 0.2883,-0.18701 0.5578,0 1.3534,0.78163 2.6386,0.78163 l 0.2537,0 c 1.3193,0 2.1818,-0.76451 2.1818,-2.00574 l 0,-4.9624 1.4209,0 0,-1.13853 -3.8734,0"
           style="fill:#dbea3e;fill-opacity:1;fill-rule:nonzero;stroke:none"
           id="path1040" />
        <path
           inkscape:connector-curvature="0"
           d="m 583.0184,72.37691 -5.8703,0 c -0.2366,0 -0.4903,0.20412 -0.4903,0.45833 l 0,0.30618 c 0,0.20413 0.1344,0.37402 0.3042,0.57815 l 4.6179,5.57413 -3.4337,0 0,-0.96864 -1.2511,0 0,1.63173 c 0,0.28907 0.2189,0.47608 0.4902,0.47608 l 5.3959,0 c 0.2372,0 0.4562,-0.20413 0.4562,-0.45896 l 0,-0.18701 c 0,-0.23836 -0.2025,-0.51032 -0.3041,-0.64598 l -4.6691,-5.62548 3.9927,0 0,1.2406 1.2518,0 0,-1.90368 c 0,-0.28845 -0.2208,-0.47545 -0.4903,-0.47545"
           style="fill:#dbea3e;fill-opacity:1;fill-rule:nonzero;stroke:none"
           id="path1042" />
        <path
           inkscape:connector-curvature="0"
           d="m 480.7461,55.88272 -3.3661,0 c -1.0486,0 -1.9118,0.83362 -1.9118,1.8872 l 0,7.71555 c 0,1.03647 0.8632,1.88657 1.9118,1.88657 l 4.1611,0 c 0.2707,0 0.4903,-0.18701 0.4903,-0.47608 l 0,-2.14141 -1.2512,0 0,1.47896 -3.1295,0 c -0.5079,0 -0.9307,-0.42537 -0.9307,-0.93441 l 0,-7.18939 c 0,-0.59526 0.3388,-1.08783 0.9471,-1.08783 l 2.6563,0 c 0.5577,0 0.913,0.45897 0.913,0.93505 l 0,0.81587 1.2524,0 0,-1.00288 c 0,-0.90081 -0.7956,-1.8872 -1.7427,-1.8872"
           style="fill:#dbea3e;fill-opacity:1;fill-rule:nonzero;stroke:none"
           id="path1044" />
        <path
           inkscape:connector-curvature="0"
           d="m 490.0319,61.86573 c 0,0.50968 -0.4234,0.93442 -0.9307,0.93442 l -2.1484,0 c -0.5243,0 -0.93,-0.42474 -0.93,-0.93442 l 0,-3.9088 c 0,-0.52743 0.4057,-0.93505 0.913,-0.93505 l 2.1654,0 c 0.5073,0 0.9307,0.40762 0.9307,0.93505 l 0,3.9088 z m -0.6266,-5.98301 -2.7573,0 c -1.0486,0 -1.877,0.86658 -1.877,1.90368 l 0,4.28346 c 0,1.03647 0.8965,1.86946 1.9452,1.86946 l 2.6216,0 c 1.0493,0 1.9459,-0.83299 1.9459,-1.86946 l 0,-4.28346 c 0,-1.0371 -0.8461,-1.90368 -1.8784,-1.90368"
           style="fill:#dbea3e;fill-opacity:1;fill-rule:nonzero;stroke:none"
           id="path1046" />
        <path
           inkscape:connector-curvature="0"
           d="m 498.6778,61.86573 c 0,0.50968 -0.4227,0.93442 -0.93,0.93442 l -2.1484,0 c -0.5244,0 -0.9307,-0.42474 -0.9307,-0.93442 l 0,-3.9088 c 0,-0.52743 0.4063,-0.93505 0.9136,-0.93505 l 2.1655,0 c 0.5073,0 0.93,0.40762 0.93,0.93505 l 0,3.9088 z m -0.6259,-5.98301 -2.7573,0 c -1.0486,0 -1.8777,0.86658 -1.8777,1.90368 l 0,4.28346 c 0,1.03647 0.8966,1.86946 1.9453,1.86946 l 2.6222,0 c 1.0486,0 1.9452,-0.83299 1.9452,-1.86946 l 0,-4.28346 c 0,-1.0371 -0.8461,-1.90368 -1.8777,-1.90368"
           style="fill:#dbea3e;fill-opacity:1;fill-rule:nonzero;stroke:none"
           id="path1048" />
        <path
           inkscape:connector-curvature="0"
           d="m 507.3117,55.88272 0,1.13916 1.2014,0 0,4.75828 c 0,0.56102 -0.4568,1.01999 -1.0152,1.01999 l -2.0128,0 c -0.5583,0 -1.0152,-0.45897 -1.0152,-1.01999 l 0,-4.75828 1.2014,0 0,-1.13916 -3.8734,0 0,1.13916 1.4209,0 0,5.77827 -1.4209,0 0,1.13917 2.0461,0 c 0.2373,0 0.3382,-0.1363 0.3893,-0.23836 l 0.1691,-0.30556 c 0.0846,-0.15341 0.1521,-0.18701 0.2878,-0.18701 0.5577,0 1.3533,0.78164 2.6386,0.78164 l 0.2536,0 c 1.3193,0 2.1825,-0.76515 2.1825,-2.00575 l 0,-4.9624 1.4209,0 0,-1.13916 -3.8741,0"
           style="fill:#dbea3e;fill-opacity:1;fill-rule:nonzero;stroke:none"
           id="path1050" />
        <path
           inkscape:connector-curvature="0"
           d="m 518.2569,61.88285 c 0,0.52616 -0.4228,0.9173 -0.913,0.9173 l -2.2159,0 c -0.4902,0 -0.9136,-0.39114 -0.9136,-0.9173 l 0,-1.42761 4.0425,0 0,1.42761 z m 0.2713,-2.48119 -4.3138,0 0,-1.3433 c 0,-0.62886 0.3552,-1.03648 1.0997,-1.03648 l 2.3339,0 c 0.2871,0 0.5079,-0.187 0.5079,-0.47608 l 0,-0.187 c 0,-0.28907 -0.2208,-0.47608 -0.5079,-0.47608 l -2.8418,0 c -0.9805,0 -1.8436,0.88433 -1.8436,1.93792 l 0,4.24922 c 0,1.03647 0.8959,1.86946 1.9446,1.86946 l 2.6556,0 c 1.0493,0 1.9459,-0.83299 1.9459,-1.86946 l 0,-1.64948 c 0,-0.73029 -0.4568,-1.01872 -0.9805,-1.01872"
           style="fill:#dbea3e;fill-opacity:1;fill-rule:nonzero;stroke:none"
           id="path1052" />
        <path
           inkscape:connector-curvature="0"
           d="m 529.6386,62.80015 -4.4318,-9.84048 c -0.2031,-0.45833 -0.694,-0.86658 -1.2518,-0.86658 -0.5584,0 -1.0997,0.25484 -1.5906,0.54391 l 0,0.96864 c 0.3388,-0.15341 0.795,-0.35627 1.1843,-0.35627 0.5073,0 0.6934,0.27133 0.778,0.47545 l 0.947,2.1579 c -0.2025,0 -0.3211,0.23835 -0.3546,0.3233 l -2.9774,6.59413 -1.1496,0 0,1.13917 3.4677,0 0,-1.13917 -0.9477,0 2.52,-5.67684 2.4866,5.67684 -0.9471,0 0,1.13917 3.4166,0 0,-1.13917 -1.1496,0"
           style="fill:#dbea3e;fill-opacity:1;fill-rule:nonzero;stroke:none"
           id="path1054" />
        <path
           inkscape:connector-curvature="0"
           d="m 541.5453,55.88272 -3.3667,0 c -1.0487,0 -1.9112,0.83362 -1.9112,1.8872 l 0,7.71555 c 0,1.03647 0.8625,1.88657 1.9112,1.88657 l 4.1617,0 c 0.2707,0 0.4903,-0.18701 0.4903,-0.47608 l 0,-2.14141 -1.2518,0 0,1.47896 -3.1289,0 c -0.5079,0 -0.9307,-0.42537 -0.9307,-0.93441 l 0,-7.18939 c 0,-0.59526 0.3382,-1.08783 0.9471,-1.08783 l 2.6563,0 c 0.5578,0 0.913,0.45897 0.913,0.93505 l 0,0.81587 1.2524,0 0,-1.00288 c 0,-0.90081 -0.7956,-1.8872 -1.7427,-1.8872"
           style="fill:#dbea3e;fill-opacity:1;fill-rule:nonzero;stroke:none"
           id="path1056" />
        <path
           inkscape:connector-curvature="0"
           d="m 550.8645,61.88285 c 0,0.52616 -0.4227,0.9173 -0.9136,0.9173 l -2.2153,0 c -0.4908,0 -0.9142,-0.39114 -0.9142,-0.9173 l 0,-1.42761 4.0431,0 0,1.42761 z m 0.2707,-2.48119 -4.3138,0 0,-1.3433 c 0,-0.62886 0.3558,-1.03648 1.1004,-1.03648 l 2.3338,0 c 0.2871,0 0.5079,-0.187 0.5079,-0.47608 l 0,-0.187 c 0,-0.28907 -0.2208,-0.47608 -0.5079,-0.47608 l -2.8418,0 c -0.9811,0 -1.8436,0.88433 -1.8436,1.93792 l 0,4.24922 c 0,1.03647 0.8959,1.86946 1.9446,1.86946 l 2.6557,0 c 1.0492,0 1.9458,-0.83299 1.9458,-1.86946 l 0,-1.64948 c 0,-0.73029 -0.4574,-1.01872 -0.9811,-1.01872"
           style="fill:#dbea3e;fill-opacity:1;fill-rule:nonzero;stroke:none"
           id="path1058" />
        <path
           inkscape:connector-curvature="0"
           d="m 559.2196,55.88272 0,1.13916 1.2007,0 0,4.75828 c 0,0.56102 -0.4562,1.01999 -1.0146,1.01999 l -2.0134,0 c -0.5577,0 -1.0146,-0.45897 -1.0146,-1.01999 l 0,-4.75828 1.2007,0 0,-1.13916 -3.8734,0 0,1.13916 1.421,0 0,5.77827 -1.421,0 0,1.13917 2.0468,0 c 0.2367,0 0.3382,-0.1363 0.3894,-0.23836 l 0.169,-0.30556 c 0.0846,-0.15341 0.1521,-0.18701 0.2878,-0.18701 0.5571,0 1.3527,0.78164 2.6386,0.78164 l 0.2536,0 c 1.3188,0 2.1819,-0.76515 2.1819,-2.00575 l 0,-4.9624 1.4215,0 0,-1.13916 -3.874,0"
           style="fill:#dbea3e;fill-opacity:1;fill-rule:nonzero;stroke:none"
           id="path1060" />
        <path
           inkscape:connector-curvature="0"
           d="m 566.6453,62.80015 0,-4.91168 c 0,-0.62886 0.2038,-0.90082 0.8126,-0.90082 0.3716,0 0.8625,0.22125 1.1837,0.37402 l 0,-0.98639 c -0.3546,-0.20349 -0.9471,-0.54328 -1.5389,-0.54328 -1.0991,0 -1.7087,0.61174 -1.7087,1.5639 l 0,5.40425 -1.2183,0 c -0.2871,0 -0.5066,0.18701 -0.5066,0.47544 l 0,0.18701 c 0,0.28971 0.2195,0.47672 0.5066,0.47672 l 1.2183,0 0,2.9224 c 0,0.28971 0.2373,0.51032 0.5074,0.51032 l 0.2372,0 c 0.2877,0 0.5067,-0.22061 0.5067,-0.51032 l 0,-2.9224 2.0474,0 0,-1.13917 -2.0474,0"
           style="fill:#dbea3e;fill-opacity:1;fill-rule:nonzero;stroke:none"
           id="path1062" />
        <path
           inkscape:connector-curvature="0"
           d="m 575.9789,61.88285 c 0,0.52616 -0.4227,0.9173 -0.913,0.9173 l -2.2159,0 c -0.4902,0 -0.9136,-0.39114 -0.9136,-0.9173 l 0,-1.42761 4.0425,0 0,1.42761 z m 0.2713,-2.48119 -4.3138,0 0,-1.3433 c 0,-0.62886 0.3558,-1.03648 1.0998,-1.03648 l 2.3345,0 c 0.2871,0 0.5073,-0.187 0.5073,-0.47608 l 0,-0.187 c 0,-0.28907 -0.2202,-0.47608 -0.5073,-0.47608 l -2.8418,0 c -0.9812,0 -1.8437,0.88433 -1.8437,1.93792 l 0,4.24922 c 0,1.03647 0.896,1.86946 1.9446,1.86946 l 2.6557,0 c 1.0493,0 1.9459,-0.83299 1.9459,-1.86946 l 0,-1.64948 c 0,-0.73029 -0.4575,-1.01872 -0.9812,-1.01872"
           style="fill:#dbea3e;fill-opacity:1;fill-rule:nonzero;stroke:none"
           id="path1064" />
        <path
           inkscape:connector-curvature="0"
           d="m 585.2444,62.80015 -2.5881,0 c -0.66,0 -1.0821,-0.42474 -1.0821,-1.08783 l 0,-4.69044 1.4209,0 0,-1.13916 -4.0942,0 0,1.13916 1.4209,0 0,5.77827 -1.4209,0 0,1.13917 2.0468,0 c 0.2038,0 0.3218,-0.11918 0.3899,-0.23836 l 0.1685,-0.30556 c 0.0504,-0.08494 0.1016,-0.18701 0.2877,-0.18701 0.4568,0 0.795,0.73093 1.8437,0.73093 l 1.6069,0 c 0.2878,0 0.508,-0.18701 0.508,-0.47672 l 0,-0.18701 c 0,-0.28843 -0.2202,-0.47544 -0.508,-0.47544"
           style="fill:#dbea3e;fill-opacity:1;fill-rule:nonzero;stroke:none"
           id="path1066" />
        <path
           inkscape:connector-curvature="0"
           d="m 528.9698,46.2806 c 0,0.16736 -0.1369,0.30492 -0.3098,0.30492 l -0.8032,0 c -0.1728,0 -0.3091,-0.13756 -0.3091,-0.30492 l 0,-0.37085 c 0,-0.16736 0.1363,-0.30492 0.3091,-0.30492 l 0.8032,0 c 0.1729,0 0.3098,0.13756 0.3098,0.30492 l 0,0.37085 z m 0.2139,-1.07641 c -0.0536,0 -0.1072,0.04184 -0.1306,0.08368 l -0.0593,0.10143 c -0.036,0.06022 -0.06,0.06022 -0.1073,0.06022 -0.1968,0 -0.4701,-0.26308 -0.9224,-0.26308 l -0.089,0 c -0.5117,0 -0.7679,0.31696 -0.7679,0.70556 l 0,0.40635 c 0,0.3886 0.2562,0.70556 0.7679,0.70556 l 0.089,0 c 0.4523,0 0.7256,-0.27449 0.9224,-0.27449 0.0473,0 0.0833,0.04691 0.0833,0.10714 l 0,0.41839 c 0,0.23328 -0.1312,0.38226 -0.3867,0.38226 l -1.0531,0 c -0.101,0 -0.1849,0.06656 -0.1849,0.16799 l 0,0.06593 c 0,0.10143 0.0839,0.16672 0.1786,0.16672 l 1.2139,0 c 0.3685,0 0.6726,-0.31696 0.6726,-0.65738 l 0,-1.77564 0.4701,0 0,-0.40064 -0.6966,0"
           style="fill:#dbea3e;fill-opacity:1;fill-rule:nonzero;stroke:none"
           id="path1068" />
        <path
           inkscape:connector-curvature="0"
           d="m 531.2684,47.63721 0,-1.72746 c 0,-0.22124 0.0707,-0.31696 0.2852,-0.31696 0.1312,0 0.3041,0.07797 0.4164,0.13185 l 0,-0.34675 c -0.1243,-0.07164 -0.3325,-0.19145 -0.5407,-0.19145 -0.3868,0 -0.6013,0.21553 -0.6013,0.54961 l 0,1.90116 -0.4285,0 c -0.1009,0 -0.1779,0.06656 -0.1779,0.16799 l 0,0.06593 c 0,0.10143 0.077,0.16672 0.1779,0.16672 l 0.4285,0 0,1.02823 c 0,0.10143 0.0839,0.1794 0.1785,0.1794 l 0.0833,0 c 0.1016,0 0.1786,-0.07797 0.1786,-0.1794 l 0,-1.02823 0.7199,0 0,-0.40064 -0.7199,0"
           style="fill:#dbea3e;fill-opacity:1;fill-rule:nonzero;stroke:none"
           id="path1070" />
        <path
           inkscape:connector-curvature="0"
           d="m 535.6775,45.20419 -0.9338,0 c -0.3628,0 -0.6663,0.29921 -0.6663,0.66372 l 0,0.35247 0.4398,0 0,-0.28654 c 0,-0.16799 0.1255,-0.32901 0.3217,-0.32901 l 0.7376,0 c 0.2265,0 0.3508,0.19715 0.3508,0.35944 l 0,0.81206 c 0,0.12615 -0.1129,0.24533 -0.2549,0.24533 l -1.0057,0 c -0.2985,0 -0.5773,0.20349 -0.5773,0.55025 l 0,1.03964 c 0,0.24533 0.2321,0.63393 0.672,0.63393 l 1.2612,0 c 0.1009,0 0.1842,-0.07797 0.1842,-0.1794 l 0,-0.74106 -0.4397,0 0,0.52045 -0.8922,0 c -0.2145,0 -0.3451,-0.17369 -0.3451,-0.33535 l 0,-0.84882 c 0,-0.13693 0.0826,-0.23836 0.3148,-0.23836 l 1.0714,0 c 0.2738,0 0.4517,-0.23392 0.4517,-0.47862 l 0,-1.05802 c 0,-0.39494 -0.2788,-0.68211 -0.6902,-0.68211"
           style="fill:#dbea3e;fill-opacity:1;fill-rule:nonzero;stroke:none"
           id="path1072" />
        <path
           inkscape:connector-curvature="0"
           d="m 539.1692,47.31454 c 0,0.18511 -0.1489,0.32267 -0.3212,0.32267 l -0.7798,0 c -0.1723,0 -0.3206,-0.13756 -0.3206,-0.32267 l 0,-0.50207 1.4216,0 0,0.50207 z m 0.0953,-0.87229 -1.5169,0 0,-0.47291 c 0,-0.22061 0.1243,-0.36451 0.3862,-0.36451 l 0.8215,0 c 0.1009,0 0.1786,-0.06529 0.1786,-0.16672 l 0,-0.06593 c 0,-0.10206 -0.0777,-0.16799 -0.1786,-0.16799 l -0.9995,0 c -0.3451,0 -0.6492,0.31126 -0.6492,0.68211 l 0,1.49417 c 0,0.36451 0.3149,0.65738 0.6845,0.65738 l 0.9345,0 c 0.3685,0 0.684,-0.29287 0.684,-0.65738 l 0,-0.58005 c 0,-0.25674 -0.1609,-0.35817 -0.3451,-0.35817"
           style="fill:#dbea3e;fill-opacity:1;fill-rule:nonzero;stroke:none"
           id="path1074" />
        <path
           inkscape:connector-curvature="0"
           d="m 541.9649,45.20419 -0.9811,0 c -0.364,0 -0.6669,0.29921 -0.6669,0.66372 l 0,0.1737 0.4398,0 0,-0.10777 c 0,-0.16799 0.1255,-0.32901 0.3217,-0.32901 l 0.8033,0 c 0.2025,0 0.2561,0.2092 0.2561,0.34042 l 0,0.23899 c 0,0.10777 -0.0536,0.25801 -0.2561,0.25801 l -0.9522,0 c -0.2908,0 -0.583,0.2447 -0.583,0.6035 l 0,0.37085 c 0,0.2447 0.2379,0.62125 0.6783,0.62125 l 1.1603,0 c 0.0947,0 0.1723,-0.06529 0.1723,-0.16672 l 0,-0.57498 -0.4398,0 0,0.34106 -0.7912,0 c -0.2208,0 -0.3395,-0.12552 -0.3395,-0.30492 l 0,-0.22061 c 0,-0.13756 0.1129,-0.29921 0.3275,-0.29921 l 0.9338,0 c 0.2795,0 0.53,-0.17941 0.53,-0.53758 l 0,-0.40127 c 0,-0.41839 -0.2442,-0.66943 -0.6133,-0.66943"
           style="fill:#dbea3e;fill-opacity:1;fill-rule:nonzero;stroke:none"
           id="path1076" />
        <path
           inkscape:connector-curvature="0"
           d="m 545.1954,46.2806 c 0,0.16736 -0.1363,0.30492 -0.3092,0.30492 l -0.8032,0 c -0.1728,0 -0.3098,-0.13756 -0.3098,-0.30492 l 0,-0.37085 c 0,-0.16736 0.137,-0.30492 0.3098,-0.30492 l 0.8032,0 c 0.1729,0 0.3092,0.13756 0.3092,0.30492 l 0,0.37085 z m 0.2145,-1.07641 c -0.0542,0 -0.1072,0.04184 -0.1312,0.08368 l -0.0599,0.10143 c -0.0354,0.06022 -0.0588,0.06022 -0.1073,0.06022 -0.1956,0 -0.4695,-0.26308 -0.9212,-0.26308 l -0.0896,0 c -0.5123,0 -0.7673,0.31696 -0.7673,0.70556 l 0,0.40635 c 0,0.3886 0.255,0.70556 0.7673,0.70556 l 0.0896,0 c 0.4517,0 0.7256,-0.27449 0.9212,-0.27449 0.0485,0 0.0839,0.04691 0.0839,0.10714 l 0,0.41839 c 0,0.23328 -0.1306,0.38226 -0.3868,0.38226 l -1.053,0 c -0.101,0 -0.1843,0.06656 -0.1843,0.16799 l 0,0.06593 c 0,0.10143 0.0833,0.16672 0.1786,0.16672 l 1.2139,0 c 0.3685,0 0.672,-0.31696 0.672,-0.65738 l 0,-1.77564 0.4707,0 0,-0.40064 -0.6966,0"
           style="fill:#dbea3e;fill-opacity:1;fill-rule:nonzero;stroke:none"
           id="path1078" />
        <path
           inkscape:connector-curvature="0"
           d="m 550.1276,45.20419 0,0.40064 0.3571,0 0,1.66787 c 0,0.23899 -0.2083,0.36451 -0.3515,0.36451 l -0.4637,0 c -0.161,0 -0.3514,-0.13186 -0.3514,-0.36451 l 0,-1.66787 0.3571,0 0,-0.40064 -1.1541,0 0,0.40064 0.3565,0 0,1.66787 c 0,0.19145 -0.1482,0.36451 -0.3388,0.36451 l -0.4694,0 c -0.1376,0 -0.3571,-0.10143 -0.3571,-0.36451 l 0,-1.66787 0.3571,0 0,-0.40064 -1.2979,0 0,0.40064 0.5004,0 0,2.03238 -0.5004,0 0,0.40064 0.7262,0 c 0.065,0 0.113,-0.04754 0.1313,-0.08368 l 0.0593,-0.10776 c 0.024,-0.04755 0.0473,-0.0653 0.0889,-0.0653 0.137,0 0.3578,0.27449 0.7257,0.27449 l 0.1015,0 c 0.4228,0 0.5357,-0.28083 0.7199,-0.28083 0.2379,0 0.3868,0.28083 0.7799,0.28083 l 0.1009,0 c 0.4461,0 0.7193,-0.34105 0.7193,-0.68781 l 0,-1.76296 0.5004,0 0,-0.40064 -1.2972,0"
           style="fill:#dbea3e;fill-opacity:1;fill-rule:nonzero;stroke:none"
           id="path1080" />
        <path
           inkscape:connector-curvature="0"
           d="m 554.0193,47.31454 c 0,0.18511 -0.1489,0.32267 -0.3212,0.32267 l -0.7792,0 c -0.1729,0 -0.3218,-0.13756 -0.3218,-0.32267 l 0,-0.50207 1.4222,0 0,0.50207 z m 0.0946,-0.87229 -1.5168,0 0,-0.47291 c 0,-0.22061 0.1249,-0.36451 0.3868,-0.36451 l 0.8208,0 c 0.1016,0 0.1786,-0.06529 0.1786,-0.16672 l 0,-0.06593 c 0,-0.10206 -0.077,-0.16799 -0.1786,-0.16799 l -0.9994,0 c -0.3451,0 -0.648,0.31126 -0.648,0.68211 l 0,1.49417 c 0,0.36451 0.3155,0.65738 0.6833,0.65738 l 0.9345,0 c 0.3691,0 0.6846,-0.29287 0.6846,-0.65738 l 0,-0.58005 c 0,-0.25674 -0.1609,-0.35817 -0.3458,-0.35817"
           style="fill:#dbea3e;fill-opacity:1;fill-rule:nonzero;stroke:none"
           id="path1082" />
        <path
           inkscape:connector-curvature="0"
           d="m 560.749,48.84547 -0.696,-3.35982 c -0.0239,-0.11347 -0.1248,-0.28146 -0.2978,-0.28146 l -0.1659,0 c -0.1609,0 -0.2618,0.15594 -0.2978,0.25737 l -0.6846,1.96645 -0.6839,-1.96645 c -0.0354,-0.10143 -0.1369,-0.25737 -0.2978,-0.25737 l -0.1666,0 c -0.1729,0 -0.2738,0.16799 -0.2972,0.28146 l -0.6959,3.35982 -0.4644,0 0,0.40001 1.3565,0 0,-0.40001 -0.4404,0 0.4284,-2.08625 c 0.0896,-0.44819 0.1969,-1.18989 0.1969,-1.18989 l 0.0177,0 c 0,0 0.1129,0.43044 0.1968,0.66943 l 0.5767,1.63237 c 0.0353,0.10143 0.101,0.16038 0.2139,0.16038 l 0.1193,0 c 0.1129,0 0.1779,-0.05895 0.2138,-0.16038 l 0.5774,-1.63237 c 0.0833,-0.23899 0.1962,-0.66943 0.1962,-0.66943 l 0.0183,0 c 0,0 0.1066,0.7417 0.1962,1.18989 l 0.4278,2.08625 -0.4398,0 0,0.40001 1.3566,0 0,-0.40001 -0.4644,0"
           style="fill:#dbea3e;fill-opacity:1;fill-rule:nonzero;stroke:none"
           id="path1084" />
        <path
           inkscape:connector-curvature="0"
           d="m 563.4318,47.30883 c 0,0.1794 -0.1489,0.32838 -0.3268,0.32838 l -0.7559,0 c -0.1842,0 -0.3275,-0.14898 -0.3275,-0.32838 l 0,-1.37499 c 0,-0.18511 0.1433,-0.32901 0.3218,-0.32901 l 0.7616,0 c 0.1779,0 0.3268,0.1439 0.3268,0.32901 l 0,1.37499 z m -0.2202,-2.10464 -0.9698,0 c -0.3691,0 -0.66,0.30555 -0.66,0.66943 l 0,1.50685 c 0,0.36451 0.3149,0.65738 0.684,0.65738 l 0.9218,0 c 0.3692,0 0.6846,-0.29287 0.6846,-0.65738 l 0,-1.50685 c 0,-0.36388 -0.2978,-0.66943 -0.6606,-0.66943"
           style="fill:#dbea3e;fill-opacity:1;fill-rule:nonzero;stroke:none"
           id="path1086" />
        <path
           inkscape:connector-curvature="0"
           d="m 566.8983,47.63721 -0.9111,0 c -0.2316,0 -0.3805,-0.14898 -0.3805,-0.38226 l 0,-1.65012 0.5004,0 0,-0.40064 -1.4399,0 0,0.40064 0.4997,0 0,2.03238 -0.4997,0 0,0.40064 0.7193,0 c 0.0719,0 0.113,-0.04184 0.1375,-0.08368 l 0.0594,-0.10776 c 0.0176,-0.0298 0.0353,-0.0653 0.1009,-0.0653 0.1609,0 0.2795,0.25674 0.648,0.25674 l 0.566,0 c 0.1009,0 0.1785,-0.06529 0.1785,-0.16672 l 0,-0.06593 c 0,-0.10143 -0.0776,-0.16799 -0.1785,-0.16799"
           style="fill:#dbea3e;fill-opacity:1;fill-rule:nonzero;stroke:none"
           id="path1088" />
        <path
           inkscape:connector-curvature="0"
           d="m 569.882,45.20419 c -0.1186,0 -0.1779,0.04818 -0.2322,0.11347 l -1.0164,1.29131 -0.3578,-0.32837 0,-0.67577 0.4228,0 0,-0.40064 -1.3629,0 0,0.40064 0.5004,0 0,3.24064 -0.5004,0 0,0.40001 0.7615,0 c 0.0953,0 0.1786,-0.07797 0.1786,-0.1794 l 0,-2.21811 1.202,1.11191 c 0.048,0.04184 0.1072,0.07797 0.1962,0.07797 l 0.6549,0 0,-0.40064 -0.5886,0 -0.7919,-0.73473 1.0234,-1.29765 0.5357,0 0,-0.40064 -0.6253,0"
           style="fill:#dbea3e;fill-opacity:1;fill-rule:nonzero;stroke:none"
           id="path1090" />
        <path
           inkscape:connector-curvature="0"
           d="m 572.7478,45.20419 -0.9817,0 c -0.3628,0 -0.6663,0.29921 -0.6663,0.66372 l 0,0.1737 0.4404,0 0,-0.10777 c 0,-0.16799 0.1243,-0.32901 0.3211,-0.32901 l 0.8026,0 c 0.2032,0 0.2568,0.2092 0.2568,0.34042 l 0,0.23899 c 0,0.10777 -0.0536,0.25801 -0.2568,0.25801 l -0.9508,0 c -0.2921,0 -0.583,0.2447 -0.583,0.6035 l 0,0.37085 c 0,0.2447 0.2378,0.62125 0.6776,0.62125 l 1.1603,0 c 0.0953,0 0.1723,-0.06529 0.1723,-0.16672 l 0,-0.57498 -0.4404,0 0,0.34106 -0.7913,0 c -0.2195,0 -0.3388,-0.12552 -0.3388,-0.30492 l 0,-0.22061 c 0,-0.13756 0.1136,-0.29921 0.3275,-0.29921 l 0.9338,0 c 0.2795,0 0.5294,-0.17941 0.5294,-0.53758 l 0,-0.40127 c 0,-0.41839 -0.2442,-0.66943 -0.6127,-0.66943"
           style="fill:#dbea3e;fill-opacity:1;fill-rule:nonzero;stroke:none"
           id="path1092" />
        <path
           inkscape:connector-curvature="0"
           d="m 575.9796,45.20419 0,0.40064 0.4227,0 0,1.67421 c 0,0.19652 -0.1609,0.35817 -0.3565,0.35817 l -0.7085,0 c -0.1962,0 -0.3572,-0.16165 -0.3572,-0.35817 l 0,-1.67421 0.4221,0 0,-0.40064 -1.3622,0 0,0.40064 0.4997,0 0,3.24064 -0.4997,0 0,0.40001 0.7616,0 c 0.0959,0 0.1785,-0.07797 0.1785,-0.1794 l 0,-1.17784 c 0,-0.05958 0.036,-0.10713 0.0833,-0.10713 0.1849,0 0.4701,0.27449 0.9225,0.27449 l 0.0895,0 c 0.4638,0 0.7679,-0.26878 0.7679,-0.70493 l 0,-1.74584 0.4991,0 0,-0.40064 -1.3628,0"
           style="fill:#dbea3e;fill-opacity:1;fill-rule:nonzero;stroke:none"
           id="path1094" />
        <path
           inkscape:connector-curvature="0"
           d="m 579.9218,47.30883 c 0,0.1794 -0.1483,0.32838 -0.3269,0.32838 l -0.7552,0 c -0.1849,0 -0.3281,-0.14898 -0.3281,-0.32838 l 0,-1.37499 c 0,-0.18511 0.1432,-0.32901 0.3218,-0.32901 l 0.7615,0 c 0.1786,0 0.3269,0.1439 0.3269,0.32901 l 0,1.37499 z m -0.2196,-2.10464 -0.9698,0 c -0.3691,0 -0.6606,0.30555 -0.6606,0.66943 l 0,1.50685 c 0,0.36451 0.3155,0.65738 0.6839,0.65738 l 0.9225,0 c 0.3691,0 0.6846,-0.29287 0.6846,-0.65738 l 0,-1.50685 c 0,-0.36388 -0.2985,-0.66943 -0.6606,-0.66943"
           style="fill:#dbea3e;fill-opacity:1;fill-rule:nonzero;stroke:none"
           id="path1096" />
        <path
           inkscape:connector-curvature="0"
           d="m 583.4532,47.27904 c 0,0.20286 -0.1603,0.35817 -0.3565,0.35817 l -0.7079,0 c -0.1969,0 -0.3578,-0.15531 -0.3578,-0.35817 l 0,-1.31477 c 0,-0.19842 0.1609,-0.35944 0.3578,-0.35944 l 0.7079,0 c 0.1962,0 0.3565,0.16102 0.3565,0.35944 l 0,1.31477 z m -0.3269,-2.0926 -0.0896,0 c -0.4523,0 -0.7255,0.26308 -0.9218,0.26308 -0.0479,0 -0.0839,-0.06022 -0.0839,-0.11347 l 0,-1.26152 c 0,-0.10143 -0.077,-0.18574 -0.1722,-0.18574 l -0.7679,0 0,0.40127 0.5003,0 0,3.34715 -0.5003,0 0,0.40064 0.7262,0 c 0.0657,0 0.1193,-0.05388 0.1307,-0.07797 l 0.0662,-0.12489 c 0.017,-0.02979 0.053,-0.05388 0.1009,-0.05388 0.1963,0 0.4695,0.27449 0.9218,0.27449 l 0.0896,0 c 0.4638,0 0.7673,-0.26878 0.7673,-0.70493 l 0,-1.45867 c 0,-0.44248 -0.3035,-0.70556 -0.7673,-0.70556"
           style="fill:#dbea3e;fill-opacity:1;fill-rule:nonzero;stroke:none"
           id="path1098" />
      </g>
    </g>
  </g>
</svg>
