<?xml version="1.0" encoding="UTF-8" standalone="no"?>
<!-- Created with Inkscape (http://www.inkscape.org/) -->

<svg
   xmlns:dc="http://purl.org/dc/elements/1.1/"
   xmlns:cc="http://creativecommons.org/ns#"
   xmlns:rdf="http://www.w3.org/1999/02/22-rdf-syntax-ns#"
   xmlns:svg="http://www.w3.org/2000/svg"
   xmlns="http://www.w3.org/2000/svg"
   xmlns:sodipodi="http://sodipodi.sourceforge.net/DTD/sodipodi-0.dtd"
   xmlns:inkscape="http://www.inkscape.org/namespaces/inkscape"
   width="744.09448819"
   height="1052.3622047"
   id="svg2"
   version="1.1"
   inkscape:version="0.48.4 r9939"
   sodipodi:docname="LFL-Logo.svg"
   inkscape:export-filename="/home/erika/DEV/p2pu/learning-family-learning/img/LFL-Logo.png"
   inkscape:export-xdpi="109.5452"
   inkscape:export-ydpi="109.5452">
  <defs
     id="defs4" />
  <sodipodi:namedview
     id="base"
     pagecolor="#ffffff"
     bordercolor="#666666"
     borderopacity="1.0"
     inkscape:pageopacity="0.0"
     inkscape:pageshadow="2"
     inkscape:zoom="7.3086114"
     inkscape:cx="112.75758"
     inkscape:cy="743.41536"
     inkscape:document-units="px"
     inkscape:current-layer="layer3"
     showgrid="false"
     inkscape:window-width="1855"
     inkscape:window-height="1056"
     inkscape:window-x="65"
     inkscape:window-y="24"
     inkscape:window-maximized="1" />
  <metadata
     id="metadata7">
    <rdf:RDF>
      <cc:Work
         rdf:about="">
        <dc:format>image/svg+xml</dc:format>
        <dc:type
           rdf:resource="http://purl.org/dc/dcmitype/StillImage" />
        <dc:title></dc:title>
      </cc:Work>
    </rdf:RDF>
  </metadata>
  <g
     inkscape:label="L"
     inkscape:groupmode="layer"
     id="layer1">
    <g
       style="font-size:14px;font-style:normal;font-variant:normal;font-weight:normal;font-stretch:normal;text-align:center;line-height:125%;letter-spacing:0px;word-spacing:0px;text-anchor:middle;fill:#ffffff;fill-opacity:1;stroke:none;stroke-opacity:1;font-family:Arvo;-inkscape-font-specification:Arvo"
       id="text2993-6"
       inkscape:export-filename="/home/erika/DEV/p2pu/learning-family-learning/img/LFL-Logo.png"
       inkscape:export-xdpi="109.5452"
       inkscape:export-ydpi="109.5452"
       transform="matrix(0.92592836,0,0,0.92592836,-8.4459841,15.486326)"
       inkscape:transform-center-y="12.800236">
      <path
         d="m 103.14244,295.83319 11.4082,0 0,4.83399 -2.8125,0 0,16.99804 5.80079,0 c 0.15232,1e-5 0.29881,-0.041 0.43945,-0.12304 0.15233,-0.0937 0.28123,-0.21094 0.38672,-0.35157 0.11717,-0.14062 0.21092,-0.29296 0.28125,-0.45703 0.0703,-0.16406 0.10545,-0.32226 0.10547,-0.47461 l 0,-3.56836 5.69531,0 0,9.79102 -21.30469,0 0,-4.81641 2.75977,0 0,-16.99804 -2.75977,0 0,-4.83399"
         style="font-size:36px;font-weight:bold;fill:#ffffff;fill-opacity:1;stroke:none;stroke-opacity:1;-inkscape-font-specification:Arvo Bold"
         id="path2998-7"
         inkscape:connector-curvature="0" />
    </g>
  </g>
  <g
     inkscape:groupmode="layer"
     id="layer2"
     inkscape:label="F">
    <g
       style="font-size:14px;font-style:normal;font-variant:normal;font-weight:normal;font-stretch:normal;text-align:center;line-height:125%;letter-spacing:0px;word-spacing:0px;text-anchor:middle;fill:#ff0303;fill-opacity:1;stroke:#ffffff;stroke-opacity:1;font-family:Arvo;-inkscape-font-specification:Arvo"
       id="text2989"
       inkscape:export-filename="/home/erika/DEV/p2pu/learning-family-learning/img/LFL-Logo.png"
       inkscape:export-xdpi="109.5452"
       inkscape:export-ydpi="109.5452"
       transform="matrix(0.95055109,0,0,0.90012576,-3.3211124,33.220943)"
       inkscape:transform-center-y="12.442213">
      <path
         d="m 110.63579,284.99719 20.61914,0 0,9.08789 -5.71289,0 0,-3.74414 -6.31055,0 0,5.60742 5.4668,0 0,5.11524 -5.4668,0 0,5.76562 2.8125,0 0,4.81641 -11.4082,0 0,-4.81641 2.75976,0 0,-16.48828 -2.75976,0 0,-5.34375"
         style="font-size:36px;font-weight:bold;fill:#ff0303;fill-opacity:1;stroke:#ffffff;stroke-opacity:1;-inkscape-font-specification:Arvo Bold"
         id="path3004"
         inkscape:connector-curvature="0" />
    </g>
  </g>
  <g
     inkscape:groupmode="layer"
     id="layer3"
     inkscape:label="L#1">
    <g
       style="font-size:14px;font-style:normal;font-variant:normal;font-weight:normal;font-stretch:normal;text-align:center;line-height:125%;letter-spacing:0px;word-spacing:0px;text-anchor:middle;fill:#ffffff;fill-opacity:1;stroke:none;font-family:Arvo;-inkscape-font-specification:Arvo"
       id="text2993-6-2"
       inkscape:export-filename="/home/erika/DEV/p2pu/learning-family-learning/img/LFL-Logo.png"
       inkscape:export-xdpi="109.5452"
       inkscape:export-ydpi="109.5452"
       transform="matrix(0.92592836,0,0,0.92592836,23.660055,15.483191)"
       inkscape:transform-center-y="12.800236">
      <path
         d="m 103.14244,295.83319 11.4082,0 0,4.83399 -2.8125,0 0,16.99804 5.80079,0 c 0.15232,1e-5 0.29881,-0.041 0.43945,-0.12304 0.15233,-0.0937 0.28123,-0.21094 0.38672,-0.35157 0.11717,-0.14062 0.21092,-0.29296 0.28125,-0.45703 0.0703,-0.16406 0.10545,-0.32226 0.10547,-0.47461 l 0,-3.56836 5.69531,0 0,9.79102 -21.30469,0 0,-4.81641 2.75977,0 0,-16.99804 -2.75977,0 0,-4.83399"
         style="font-size:36px;font-weight:bold;fill:#ffffff;fill-opacity:1;stroke:none;-inkscape-font-specification:Arvo Bold"
         id="path2998-7-7"
         inkscape:connector-curvature="0" />
    </g>
  </g>
</svg>
